<svg width="450" height="500" viewBox="0 0 450 500" fill="none" xmlns="http://www.w3.org/2000/svg">
<g opacity="0.1" clip-path="url(#clip0_6_961)">
<path d="M102.273 325.975L103.187 339.079C103.158 340.157 103.485 341.233 104.101 342.085C104.717 342.937 105.575 343.501 106.498 343.659C108.213 343.882 110.367 342.246 110.222 340.066L109.307 326.963C109.336 325.884 109.009 324.808 108.393 323.956C107.777 323.104 106.919 322.541 105.996 322.382C104.281 322.159 102.127 323.795 102.286 326.045L102.273 325.975Z" fill="black"/>
<path d="M106.514 356.441C106.826 359.886 107.733 363.251 109.193 366.383C111.287 370.985 118.221 367.55 116.124 362.935C114.991 360.431 114.308 357.743 114.107 354.999C113.891 353.986 113.3 353.094 112.458 352.509C111.615 351.924 110.586 351.69 109.583 351.856C108.587 352.066 107.711 352.66 107.139 353.515C106.567 354.369 106.343 355.418 106.514 356.441Z" fill="black"/>
<path d="M116.543 341.658L118.212 350.446C119.212 355.713 127.567 354.14 126.564 348.859L124.894 340.072C123.891 334.791 115.539 336.377 116.543 341.658Z" fill="black"/>
<path d="M144.704 260.523C110.815 256.176 84.6133 231.361 80.8504 196.846C80.4832 193.505 76.1519 192.451 73.8345 194.41C48.828 215.547 23.7237 184.148 27.805 158.541C31.1716 137.151 62.8321 119.205 79.3192 139.191C79.8241 139.732 80.4571 140.137 81.1594 140.367C81.8618 140.597 82.6106 140.645 83.3362 140.507C84.0619 140.37 84.7408 140.05 85.3099 139.578C85.8789 139.107 86.3196 138.498 86.5909 137.81C101.441 99.8193 155.355 71.4341 195.042 78.9251C197.801 79.4438 200.112 76.3534 199.591 73.8455C194.678 50.0213 223.063 28.3627 245.423 35.5402C268.287 42.8607 280.056 80.1741 256.123 93.5092C255.473 93.8591 254.921 94.3683 254.52 94.9894C254.119 95.6105 253.881 96.3234 253.828 97.0617C253.776 97.8001 253.91 98.5399 254.22 99.2124C254.529 99.8849 255.003 100.468 255.597 100.908C283.461 122.428 299.813 163.921 282.473 196.471C265.384 228.541 225.893 255.408 189.465 258.112C183.983 258.513 185.632 266.959 191.068 266.552C231.686 263.528 278.109 231.382 293.536 193.297C307.778 158.132 289.132 116.063 260.419 93.8254L259.907 101.222C288.386 85.3843 280.028 42.4029 252.96 29.3717C223.932 15.4167 184.503 43.0763 191.172 75.4448L195.734 70.3625C152.13 62.1258 94.7216 93.4689 78.5108 134.936L85.7824 133.554C64.527 107.711 23.4579 129.008 19.2611 157.84C14.4337 191.096 48.3426 227.228 79.4502 200.896L72.4171 198.448C76.6189 236.916 106.594 264.307 143.955 269.096C149.438 269.798 150.101 261.24 144.647 260.534L144.704 260.523Z" fill="black"/>
<path d="M111.839 253.221C99.6189 272.653 93.5918 296.687 91.2999 319.107C88.2864 347.693 88.1472 397.422 115.029 416.492C130.34 427.332 147.236 418.359 155.073 403.3C166.811 380.775 164.486 350.032 161.099 325.713C160.348 320.256 151.838 321.888 152.586 327.33C155.038 345.22 155.796 364.157 152.657 382.041C148.147 407.653 125.617 426.436 109.746 396.119C89.4972 357.389 95.7211 295.082 119.068 258.055C122.013 253.392 114.877 248.57 111.922 253.265L111.839 253.221Z" fill="black"/>
<path d="M289.297 195.216C321 211.655 349.993 232.896 365.782 265.431C368.273 270.468 376.185 266.625 373.735 261.566C357.384 227.688 327.361 205.148 294.299 188.016C289.325 185.428 284.276 192.622 289.297 195.216Z" fill="black"/>
<path d="M333.365 311.995C341.05 295.381 352.623 281.278 368.692 271.771C372.401 269.588 376.267 267.677 380.259 266.055L408.546 276.539C414.531 283.354 415.039 300.058 415.671 308.593C416.609 321.547 417.649 329.586 408.801 339.757C399.953 349.928 391.495 352.853 378.117 356.173C359.448 360.812 339.842 361.557 320.722 362.059C315.132 362.208 314.335 370.76 319.983 370.675C350.404 369.868 387.884 369.591 413.622 350.626C432.847 336.492 426.111 301.833 420.142 282.512C401.853 223.349 340.656 275.51 325.102 309.132C322.746 314.206 331.026 316.991 333.376 312.052L333.365 311.995Z" fill="black"/>
<path d="M389.466 259.878C370.789 267.888 367.454 294.34 367.322 311.558C367.175 332.542 376.797 349.573 394.489 361.322C399.202 364.457 404.294 357.318 399.581 354.183C385.358 344.749 377.248 331.417 376.543 314.7C375.925 300.896 377.922 274.192 393.409 267.547C398.696 265.279 394.813 257.598 389.526 259.867L389.466 259.878Z" fill="black"/>
<path d="M307.894 247.881C324.585 257.072 338.871 270.486 349.429 286.882L354.796 280.539L353.561 279.814C348.938 277.093 344.323 284.163 348.992 286.905L350.227 287.63C354.478 290.122 358.237 285.374 355.591 281.273C344.597 264.265 329.753 250.347 312.422 240.798C307.753 238.206 303.137 245.276 307.853 247.889L307.894 247.881Z" fill="black"/>
<path d="M149.205 396.543C152.732 430.078 169.821 490.813 217.47 473.393C249.002 461.894 276.739 426.85 258.067 394.455C242.893 368.117 211.324 358.83 185.748 376.652C159.015 395.278 159.339 429.063 168.712 456.937C170.476 462.186 178.244 458.33 176.503 453.122C170.257 434.578 167.634 411.903 179.441 394.856C196.288 370.518 228.658 370.087 246.512 392.788C266.357 418.059 250.23 444.041 225.473 459.208C178.304 488.108 161.39 429.721 157.723 394.895C157.139 389.362 148.62 391.01 149.199 396.514L149.205 396.543Z" fill="black"/>
<path d="M265.097 412.9C291.936 397.015 321.181 382.39 338.496 354.906C341.447 350.248 334.433 345.313 331.484 349.986C314.977 376.171 286.905 389.956 261.328 405.089C256.671 407.857 260.413 415.688 265.097 412.9Z" fill="black"/>
<path d="M200.995 192.523C207.092 204.925 231.589 195.676 228.225 177.965C224.86 160.255 194.891 180.155 200.995 192.523Z" fill="black"/>
<path d="M150.954 192.566C156.72 191.47 160.506 185.908 159.41 180.143C158.315 174.377 152.753 170.591 146.987 171.686C141.222 172.781 137.435 178.343 138.531 184.109C139.626 189.875 145.188 193.661 150.954 192.566Z" fill="black"/>
<path d="M261.64 126.109C262.032 128.174 261.803 130.309 260.982 132.244C260.161 134.178 258.785 135.826 257.028 136.979C255.27 138.131 253.21 138.737 251.109 138.719C249.007 138.701 246.958 138.06 245.22 136.877C243.483 135.694 242.135 134.023 241.348 132.074C240.56 130.126 240.368 127.987 240.796 125.93C241.224 123.872 242.252 121.987 243.751 120.514C245.25 119.041 247.152 118.045 249.217 117.653C251.986 117.127 254.85 117.722 257.18 119.308C259.51 120.894 261.114 123.341 261.64 126.109Z" fill="black"/>
<path d="M206.972 223.776C211.823 231.241 222.563 235.175 227.886 225.949C233.572 216.067 227.955 200.088 224.449 190.3C222.65 185.314 215.44 188.939 217.236 193.911C219.29 199.548 220.711 205.402 221.471 211.358C221.893 213.678 222.004 216.044 221.802 218.389C221.112 222.986 217.004 224.498 214.185 220.166C211.366 215.833 204.089 219.327 206.972 223.776Z" fill="black"/>
<path d="M218.462 194.021C221.46 200.499 225.006 206.684 229.054 212.5C232.032 216.755 235.55 222.38 241.03 222.748C252.727 223.422 252.027 204.613 248.556 197.07C246.094 191.824 238.585 195.677 240.994 200.949C242.318 203.828 243.43 207.984 242.138 211.063C240.469 215.012 238.119 210.512 236.55 208.352C232.479 202.685 228.956 196.604 226.035 190.203C223.575 184.972 216.039 188.83 218.473 194.081L218.462 194.021Z" fill="black"/>
<path d="M54.646 150.287C38.251 153.402 42.8815 183.884 59.4317 183.913C64.5318 183.935 65.0505 175.106 59.9047 175.062C58.3568 175.153 56.8052 174.65 55.5077 173.638C54.2101 172.626 53.2445 171.165 52.7712 169.497C51.7778 165.94 52.5398 159.774 56.3091 159.042C61.3343 158.088 59.6816 149.315 54.646 150.287Z" fill="black"/>
<path d="M232.416 62.1196C233.932 59.2828 238.425 58.6356 241.124 59.9497C244.89 61.798 245.844 66.1546 245.308 69.8219C244.513 75.2915 253.564 75.841 254.364 70.3998C255.481 62.7179 251.587 54.1168 243.416 51.5438C239.766 50.3843 235.752 50.543 232.148 51.9895C228.543 53.4359 225.604 56.0675 223.897 59.377C221.259 64.298 229.835 67.0888 232.427 62.1765L232.416 62.1196Z" fill="black"/>
</g>
<defs>
<clipPath id="clip0_6_961">
<rect width="374.055" height="437.814" fill="white" transform="translate(0 69.8088) rotate(-10.756)"/>
</clipPath>
</defs>
</svg>
